<svg width="96" height="96" viewBox="0 0 96 96" fill="none" xmlns="http://www.w3.org/2000/svg">
<g clip-path="url(#clip0_1261_1438)">
<path d="M6.36911 1.23777e-07C5.53277 -0.000164771 4.70457 0.164425 3.93185 0.484366C3.15913 0.804306 2.45699 1.27333 1.86555 1.86466C1.2741 2.45599 0.804936 3.15802 0.484843 3.93068C0.164749 4.70335 -1.62554e-08 5.53153 0 6.36786V95.7741H79.2591C80.5882 95.7749 81.9043 95.514 83.1322 95.0058C84.3604 94.4976 85.4761 93.7521 86.4155 92.8122L92.8374 86.393C94.7333 84.4965 95.7988 81.9246 95.799 79.2429V1.23777e-07H6.36911Z" fill="#00F58C"/>
<path d="M15.5266 12.3139H62.5448L31.3922 43.4601C30.6188 44.2327 29.5701 44.6666 28.477 44.6666C27.6962 44.6666 26.9312 44.445 26.2713 44.0274C25.6115 43.6097 25.0837 43.0134 24.7495 42.3075L12.6804 16.796C12.4535 16.3168 12.3517 15.7881 12.3844 15.2589C12.4171 14.7298 12.5833 14.2176 12.8675 13.77C13.1517 13.3225 13.5446 12.9542 14.0096 12.6996C14.4746 12.4449 14.9965 12.3123 15.5266 12.3139Z" fill="black"/>
<path d="M12.3164 83.4552V53.1539C12.3168 52.3775 12.6254 51.6331 13.1744 51.0845C13.7234 50.5356 14.4679 50.2272 15.2442 50.2272H45.5555L12.3164 83.4552Z" fill="black"/>
<path d="M53.2819 42.5033C51.8955 43.8885 50.016 44.6666 48.0564 44.6666H38.0225L68.2183 14.4771C69.6046 13.092 71.4842 12.314 73.4438 12.3138H83.4776L53.2819 42.5033Z" fill="black"/>
</g>
<defs>
<clipPath id="clip0_1261_1438">
<rect width="96" height="96" fill="white"/>
</clipPath>
</defs>
</svg>
